# xmcd
#
# Track frame offsets:
#	150
#	14515
#	28345
#	39634
#	50575
#	62866
#	72579
#	85192
#	101912
#	114067
#	125008
#	147222
#	158831
#	178469
#	190660
#	207419
#	223309
#	237506
#	256190
#	269263
#	281534
#	293272
#
# Disc length: 4064 seconds
#
# Revision: 0
# Processed by: cddbd v1.5.1PL0 Copyright (c) Steve Scherf et al.
# Submitted via: dBpowerAMP V4.0
#
DISCID=590fde16
DTITLE=Various Artist - Country Dreams
DYEAR=1900
DGENRE=Country
TTITLE0=Take Me Home, Country Road
TTITLE1=If I Said You Had A beautiful Body
TTITLE2=All I have to do is dream
TTITLE3=He'll have to do
TTITLE4=Your cheatin heart
TTITLE5=hello mary lou
TTITLE6=Wasted Days and Wasted Nights
TTITLE7=Island in the stream
TTITLE8=Your my best friend
TTITLE9=On the road again
TTITLE10=Sunshine On my shoulders
TTITLE11=Some Broken Hearts never mend
TTITLE12=Coward Of the country
TTITLE13=Stand By your Man
TTITLE14=Always on my mind
TTITLE15=To all the girls I loved Before
TTITLE16=Let Your love flow
TTITLE17=Mississippi
TTITLE18=Jambalaya (On the Bayou)
TTITLE19=500 Miles Away from Home
TTITLE20=Before the next tear drop falls
TTITLE21=The Most beautiful girl
EXTD=
EXTT0=
EXTT1=
EXTT2=
EXTT3=
EXTT4=
EXTT5=
EXTT6=
EXTT7=
EXTT8=
EXTT9=
EXTT10=
EXTT11=
EXTT12=
EXTT13=
EXTT14=
EXTT15=
EXTT16=
EXTT17=
EXTT18=
EXTT19=
EXTT20=
EXTT21=
PLAYORDER=
